<?xml version="1.0" encoding="utf-8"?>
<!-- Generator: Adobe Illustrator 27.5.0, SVG Export Plug-In . SVG Version: 6.00 Build 0)  -->
<svg version="1.1" id="work" xmlns="http://www.w3.org/2000/svg" xmlns:xlink="http://www.w3.org/1999/xlink" x="0px" y="0px"
	 viewBox="0 0 512 512" style="enable-background:new 0 0 512 512;" xml:space="preserve">
<style type="text/css">
	.st0{fill:#FFCE54;}
</style>
<path class="st0" d="M442.83,291.26c0-46.64,0-92.88,0-140.51c-83.66,24.98-166.32,49.67-250.28,74.74
	c0.1,64.35-0.87,128.7,0.27,193.03c0.78,43.94-24.95,72.24-62.28,83.09c-165.32,37.74-170.09-180.43-1.67-147.96
	c0-69.49,0-138.58,0-208.03c-1.35-21.5,3.19-39.87,26.53-45.91C261.15,68.56,366.51,35.05,472.8,6.16
	C495.79,3.93,509.97,25,507.1,46.17c0.01,103.86-0.65,207.73,0.33,311.58c0.39,42.06-24.86,69.49-59.21,80.47
	C282.06,479.92,272.09,259.37,442.83,291.26z"/>
</svg>
