<?xml version="1.0" encoding="utf-8"?>
<!-- Generator: Adobe Illustrator 27.5.0, SVG Export Plug-In . SVG Version: 6.00 Build 0)  -->
<svg version="1.1" id="work" xmlns="http://www.w3.org/2000/svg" xmlns:xlink="http://www.w3.org/1999/xlink" x="0px" y="0px"
	 viewBox="0 0 512 512" style="enable-background:new 0 0 512 512;" xml:space="preserve">
<style type="text/css">
	.st0{fill:#AC92EB;}
</style>
<g>
	<path class="st0" d="M240.53,506C114.63,429.76,3.48,488.99,5.26,417.33c-0.14-62.49-0.11-124.98,0-187.47
		c0.04-19.58,7.58-30.73,23.02-35.02c75.63-6.81,149.46,9.89,212.24,53.97C240.53,334.23,240.53,419.55,240.53,506z"/>
	<path class="st0" d="M272.15,505.93c0-86.5,0-171.91,0-257.67c58.4-41.06,130.15-57.88,200.92-54.6
		c21.55,0.36,33.54,11.92,33.65,33.35c0.18,64.09,0.14,128.18,0.03,192.27C507.35,488.54,396.92,429.26,272.15,505.93z"/>
	<path class="st0" d="M256.14,194.03C132.35,191.38,132.74,8.69,256.15,6C379.53,8.59,379.72,191.62,256.14,194.03z"/>
</g>
</svg>
