<?xml version="1.0" encoding="utf-8"?>
<!-- Generator: Adobe Illustrator 27.5.0, SVG Export Plug-In . SVG Version: 6.00 Build 0)  -->
<svg version="1.1" id="work" xmlns="http://www.w3.org/2000/svg" xmlns:xlink="http://www.w3.org/1999/xlink" x="0px" y="0px"
	 viewBox="0 0 512 512" style="enable-background:new 0 0 512 512;" xml:space="preserve">
<style type="text/css">
	.st0{fill:#A0D568;}
</style>
<g>
	<path class="st0" d="M221.74,202.83c-24.84,7.52-38.12,24.15-45.09,46.7c-13.13,38.39-73.07,21.58-59.42-19.3
		c8.4-31.83,26.75-56.91,54.78-73.97c64.84-44.4,164.6-28.07,188.7,43.35c15.39,47.08,17.45,26.92,45.8,54.96
		c17.49,20.74-6.01,54.29-30.89,47.69c-31-8.06-56.6-26.47-65.53-58.8c-27.23,72.44-22.92,55.75,26.15,109.57
		c23.82,30.84,23,74.21,35.43,110.36c2.52,10.08,1.88,19.63-4.23,28.54c-12.57,20.96-45.52,17.69-54.19-4.9
		c-13.01-31.49-11.11-69.98-30.55-98.28C213.69,310.68,186.57,312.97,221.74,202.83z"/>
	<path class="st0" d="M191.47,333.74c16.22,18.3,31.17,35.17,46.29,52.23c-4.9,12.38-9.03,24.43-14.45,35.86
		c-3,6.33-7.55,12.22-12.45,17.31c-17.92,18.64-36.32,36.83-54.46,55.27c-7.97,8.1-17.29,12.73-28.83,11.35
		c-23.8-2.85-35.76-28.14-22.85-48.43c2.53-3.97,5.93-7.48,9.3-10.82c15.27-15.12,30.88-29.9,45.91-45.25
		c4.31-4.4,7.98-9.92,10.44-15.57C177.5,369.32,183.87,352.61,191.47,333.74z"/>
	<path class="st0" d="M302.45,100.19c-27.77-0.88-46.78-21.67-46.47-47.53C256.31,24.21,278.09,5.73,303.22,6
		c26.23,0.29,46.74,20.03,46.49,47.43C349.46,80.06,329.61,99.78,302.45,100.19z"/>
</g>
</svg>
