<?xml version="1.0" encoding="utf-8"?>
<!-- Generator: Adobe Illustrator 27.5.0, SVG Export Plug-In . SVG Version: 6.00 Build 0)  -->
<svg version="1.1" id="spiritual" xmlns="http://www.w3.org/2000/svg" xmlns:xlink="http://www.w3.org/1999/xlink" x="0px" y="0px"
	 viewBox="0 0 550 512" style="enable-background:new 0 0 550 512;" xml:space="preserve">
<style type="text/css">
	.st0{fill:#4FC1E8;}
</style>
<g>
	<path class="st0" d="M265.03,199.02c-3.06-12.07-12.13-19.53-24.25-19.94c-13.77-0.46-24.04,7.45-26.8,20.66
		c-1.08,5.18-2.02,60.89-2.55,99.54h-14.28c0.18-10.5,0.59-24.92,1.02-39.95c0.75-26.44,1.52-53.78,1.27-66
		c-0.46-21.88,8.1-36.71,10.92-41.59c0.53-0.92,0.91-1.58,1.23-2.28c2.33-4.8,49.82-102.69,51.66-110.39
		c2.97-12.41-2.25-24.56-12.99-30.23c-11.22-5.93-23.88-2.39-31.48,8.8c-3.61,5.3-29.08,51.11-34.52,60.92
		c-5.52,8.73-47.59,76-52.73,104.26l-0.12,0.85c-2.99,33.38-20.36,138.9-24.87,166.05L4.57,370.99V506l11.02-1.78
		c1.18-0.19,118.65-19.17,170.98-30.05c24.53-5.1,44.75-16.83,58.48-33.91c13.6-16.91,20.89-39.16,21.09-64.33
		c0.22-26.79,0.27-69.39,0.14-106.03C266.05,203.03,265.46,200.71,265.03,199.02z"/>
	<path class="st0" d="M443.46,349.72c-4.51-27.15-21.87-132.67-24.87-166.05l-0.12-0.85c-5.14-28.26-47.21-95.52-52.73-104.26
		c-5.44-9.8-30.91-55.61-34.52-60.92c-7.61-11.19-20.26-14.73-31.48-8.8c-10.74,5.67-15.96,17.82-12.99,30.23
		c1.84,7.71,49.35,105.61,51.67,110.39c0.32,0.7,0.7,1.36,1.23,2.28c2.81,4.88,11.37,19.71,10.92,41.59
		c-0.25,12.22,0.52,39.55,1.27,65.98c0.43,15.04,0.83,29.47,1.02,39.97h-14.28c-0.53-38.65-1.47-94.36-2.55-99.54
		c-2.75-13.21-13.05-21.11-26.8-20.66c-12.13,0.41-21.19,7.87-24.25,19.94c-0.43,1.69-1.02,4.01-1.25,70.88
		c-0.13,36.63-0.07,79.24,0.14,106.03c0.2,25.17,7.5,47.41,21.09,64.33c13.73,17.08,33.95,28.81,58.48,33.91
		c52.34,10.89,169.8,29.86,170.98,30.05l11.02,1.78V370.99L443.46,349.72z"/>
</g>
</svg>
